<svg width="1917" height="4338" viewBox="0 0 1917 4338" fill="none" xmlns="http://www.w3.org/2000/svg">
<path opacity="0.2" d="M18.2853 3278.96L19.4098 3277.79C525.702 3298.21 470.315 3406.47 410.788 3521.22C366.351 3607.12 321.066 3695.86 502.809 3755.43C648.748 3803.25 783.763 3776.88 940.101 3746.23C1053.25 3724.2 1180.9 3699.12 1331.85 3699.48C1504.63 3699.92 1680.1 3733.73 1867.9 3802.91L1864.91 3803.8C1677.82 3734.88 1502.96 3701.16 1331.34 3700.73C1182.09 3700.33 1054.36 3725.25 941.748 3747.21C783.796 3778.07 647.787 3804.74 499.826 3756.32C316.762 3696.41 362.503 3607.44 406.859 3521.38C466.093 3407.18 521.643 3299.25 18.2853 3278.96Z" fill="#ABABAB"/>
<path opacity="0.2" d="M1827.85 24C1455.63 28.5818 664.838 87.1705 479.43 284.871C294.022 482.572 904.969 696.073 1233.62 778.111C1587.21 856.628 2082.23 1176.44 1233.62 1827.53C172.853 2641.4 315.607 2703.47 1233.62 3117.85L1916 3415.62C1686.68 3425.84 1250.04 3503.99 1338.1 3734.8C1426.16 3965.6 482.726 4233.1 0 4338" stroke="#ABABAB" stroke-width="2"/>
<path opacity="0.2" d="M1.8859e-05 1C361.845 6.24248 1130.59 73.28 1310.83 299.49C1491.07 525.701 897.157 769.989 577.67 863.857C233.938 953.697 -247.286 1319.62 577.67 2064.61C1608.86 2995.84 1470.09 3066.86 577.67 3541" stroke="#ABABAB" stroke-width="2"/>
</svg>
